<svg width="300" height="300" fill="none" xmlns="http://www.w3.org/2000/svg"><path d="M298.203 83.7645 170.449 0v46.8332l81.956 53.2558-9.642 30.509h-72.314v38.804h72.314l9.642 30.509-81.956 53.256V300l127.754-83.497-20.89-66.369 20.89-66.3695Z" fill="url(#a)"/><path d="M59.3007 169.402h72.0453v-38.804H59.0329l-9.374-30.509 81.6871-53.2558V0L3.5925 83.7645l20.8906 66.3695-20.8906 66.369L131.614 300v-46.833l-81.9551-53.256 9.6418-30.509Z" fill="url(#b)"/><mask id="e" style="mask-type:alpha" maskUnits="userSpaceOnUse" x="3" y="0" width="296" height="300"><path d="M298.204 83.7645 170.45 0v46.8332l81.955 53.2558-9.642 30.509H170.45v38.804h72.313l9.642 30.509-81.955 53.256V300l127.754-83.497-20.891-66.369 20.891-66.3695Z" fill="url(#c)"/><path d="M59.301 169.402h72.046v-38.804H59.0332l-9.374-30.509 81.6878-53.2558V0L3.5928 83.7645l20.8906 66.3695-20.8906 66.369L131.615 300v-46.833l-81.9558-53.256 9.6418-30.509Z" fill="url(#d)"/></mask><g mask="url(#e)"><path fill="url(#f)" d="M3.7502 0h292.5v300h-292.5z"/></g><defs><linearGradient id="a" x1="256.875" y1="320.625" x2="171.3" y2="-32.9459" gradientUnits="userSpaceOnUse"><stop stop-color="#0B46F9"/><stop offset="1" stop-color="#BBFBE0"/></linearGradient><linearGradient id="b" x1="256.875" y1="320.625" x2="171.3" y2="-32.9459" gradientUnits="userSpaceOnUse"><stop stop-color="#0B46F9"/><stop offset="1" stop-color="#BBFBE0"/></linearGradient><linearGradient id="c" x1="256.875" y1="320.625" x2="171.3" y2="-32.9459" gradientUnits="userSpaceOnUse"><stop stop-color="#0B46F9"/><stop offset="1" stop-color="#BBFBE0"/></linearGradient><linearGradient id="d" x1="256.875" y1="320.625" x2="171.3" y2="-32.9459" gradientUnits="userSpaceOnUse"><stop stop-color="#0B46F9"/><stop offset="1" stop-color="#BBFBE0"/></linearGradient><linearGradient id="f" x1="22.5002" y1="67.5" x2="170.625" y2="178.125" gradientUnits="userSpaceOnUse"><stop offset=".1198" stop-color="#8952FF" stop-opacity=".87"/><stop offset="1" stop-color="#DABDFF" stop-opacity="0"/></linearGradient></defs></svg>