<svg width="100" height="100" xmlns="http://www.w3.org/2000/svg" xmlns:xlink="http://www.w3.org/1999/xlink"><defs><path d="M58.907 43.686v8.883H49.37v36.595l-2.487-.927a83.184 83.184 0 0 1-5.315-2.204l-1.08-.494V15.294l9.467-2.922 8.952 2.76v9.583l-8.952-2.77-.585.181v21.56h9.537zm-42.24 8.883V22.68l21.01-6.485v9.539L25.548 29.5v14.186h12.13v41.085L34.99 83.39c-8.36-4.303-18.324-11.558-18.324-21.688v-4.775h8.881v4.775c0 2.096 1.091 4.299 3.246 6.566v-15.7H16.667zm44.936-36.6 21.526 6.662V52.57H70.491v12.963s-2.826 3.705-8.88 6.807l-.008-56.37zm12.645 27.717v-14.23l-3.757-1.16v15.39h3.757zm0 18.675v-5.434h8.881v5.434c0 15.096-21.904 23.785-28.619 26.09l-2.441.844v-9.392l1.193-.45C63.707 75.52 74.248 68.71 74.248 62.36z" id="a"/></defs><g fill="none" fill-rule="evenodd"><circle fill="#F5F5F5" cx="50" cy="50" r="50"/><use fill="#000" xlink:href="#a"/></g></svg>